<svg xmlns="http://www.w3.org/2000/svg" version="1.1" xmlns:xlink="http://www.w3.org/1999/xlink" width="2000" height="337" viewBox="0 0 2000 337"><svg xml:space="preserve" width="2000" height="337" data-version="2" data-id="lg_yzUEOuzEfiWFbW1RyS" viewBox="0 0 246 337" x="0" y="0"><rect width="100%" height="100%" fill="transparent"></rect><path fill="#f012be" d="M53.17 277.197H2.47V3.277h73.49q27.91 0 50.7 8.45 22.79 8.45 36.35 29.38 13.56 20.92 13.56 58.06 0 26.92-10.22 50.8-10.21 23.87-32.12 38.81-21.91 14.93-56.69 14.93H53.17zm19.65-234.23H53.17v119.48H74q25.94 0 38.91-15.53 12.96-15.52 12.96-45 0-30.06-11.79-44.5-11.79-14.45-41.26-14.45"></path><path fill="#52b9b9" d="M83.03 277.197h-50.7V3.277h73.49q27.9 0 50.7 8.45 22.79 8.45 36.35 29.38 13.56 20.92 13.56 58.06 0 26.92-10.22 50.8-10.22 23.87-32.13 38.81-21.91 14.93-56.69 14.93H83.03zm19.65-234.23H83.03v119.48h20.82q25.94 0 38.91-15.53 12.97-15.52 12.97-45 0-30.06-11.79-44.5-11.79-14.45-41.26-14.45"></path><path fill="#fff" d="M68.11 277.197h-50.7V3.277H90.9q27.9 0 50.7 8.45 22.79 8.45 36.35 29.38 13.56 20.92 13.56 58.06 0 26.92-10.22 50.8-10.22 23.87-32.13 38.81-21.91 14.93-56.69 14.93H68.11zm19.65-234.23H68.11v119.48h20.82q25.94 0 38.91-15.53 12.97-15.52 12.97-45 0-30.06-11.79-44.5-11.79-14.45-41.26-14.45"></path><path fill="#f012be" d="m122.896 266.301 31.312 22.269v21.038L93.06 266.117l61.147-42.354v20.854zm117.557 1.015-40.662-28.359-4.921 17.379 16.179 11.165-24.822 17.317-7.413 24.052v1.938zm-53.888-65.084 14.733 4.245-35.956 124.17-14.702-4.245z"></path></svg></svg>